<svg xmlns="http://www.w3.org/2000/svg" width="288" height="60" viewBox="0 0 288 60">
    <g fill="none" fill-rule="evenodd">
        <path fill="#50B7E6" d="M226.951 5.449c-.957-1.653-2.77-5.449-2.77-5.449s-1.741 3.779-2.688 5.449C220.446 7.294 219.98 9 219.98 9.866c0 2.285 1.873 4.142 4.201 4.185h.082c2.328-.043 4.201-1.9 4.201-4.185 0-.866-.503-2.675-1.513-4.417z"/>
        <path fill="#1A1717" d="M205.043 35.374c0 3.909-1.36 7.269-4.08 10.08-2.719 2.812-6.254 4.218-10.605 4.218-3.158 0-5.912-.772-8.263-2.315s-3.912-3.308-4.684-5.297h-.106v17.897h-1.473V21.746h1.473v6.788h.106c1.228-2.331 2.965-4.157 5.21-5.477 2.246-1.32 4.825-1.98 7.737-1.98 4.386 0 7.93 1.415 10.632 4.243 2.702 2.829 4.053 6.18 4.053 10.054zm-1.474 0c0-3.394-1.175-6.402-3.526-9.025s-5.632-3.935-9.843-3.935c-3.79 0-6.912 1.26-9.368 3.78-2.457 2.52-3.685 5.58-3.685 9.18 0 3.703 1.264 6.789 3.79 9.258 2.526 2.468 5.667 3.702 9.421 3.702 3.72 0 6.86-1.217 9.422-3.651 2.561-2.434 3.824-5.537 3.79-9.309zm33.506 13.663h-1.474v-5.503h-.105c-.842 1.989-2.28 3.514-4.316 4.577-2.035 1.063-4.263 1.595-6.684 1.595-3.72 0-6.702-.909-8.948-2.726-2.702-2.229-4.053-5.829-4.053-10.8v-14.4h1.474v14.4c0 4.423 1.14 7.628 3.421 9.617 1.93 1.714 4.527 2.571 7.79 2.571 3.579 0 6.377-.977 8.395-2.931 2.017-1.954 3.026-4.68 3.026-8.177V21.78h1.474v27.257zm19.443-26.571c-2.351.068-4.386.703-6.106 1.903-1.508 1.337-2.508 2.768-3 4.294-.491 1.526-.737 3.386-.737 5.58v14.76h-1.473V21.746h1.473v4.937h.106c.49-.96 1.087-1.8 1.79-2.52.701-.72 1.368-1.26 2-1.62.63-.36 1.376-.66 2.236-.9.86-.24 1.518-.386 1.974-.437a28.392 28.392 0 0 1 1.737-.129v1.389zm31.474 12.291l-.052.772h-27.79c.035 2.125.482 4.037 1.342 5.734.86 1.697 1.956 3.043 3.29 4.037a15.656 15.656 0 0 0 4.21 2.263c1.473.514 2.93.771 4.368.771 2.597 0 4.957-.625 7.08-1.877 2.122-1.251 3.728-3.025 4.815-5.323h1.632c-1.228 2.812-3.062 4.938-5.5 6.378-2.439 1.44-5.132 2.16-8.08 2.16-4.245-.035-7.754-1.406-10.526-4.115-2.772-2.708-4.158-6.085-4.158-10.131 0-4.08 1.412-7.492 4.237-10.234 2.825-2.743 6.325-4.115 10.5-4.115 3.895 0 7.264 1.26 10.106 3.78 2.842 2.52 4.35 5.82 4.526 9.9zm-1.526-.565c-.14-3.223-1.509-5.992-4.105-8.306-2.597-2.314-5.527-3.472-8.79-3.472-3.58 0-6.65 1.115-9.21 3.343-2.562 2.229-3.948 5.04-4.159 8.435h26.264zM29.935 48V18.407h-4.33L15.283 43.1h-.166L4.798 18.407H.466V48h3.482V25.195h.145l9.533 22.6h3.15l9.533-22.6h.145V48h3.481zm11.73-2.748c3.46 0 6.01-2.317 6.01-5.353v-1.702l-5.575.349c-3.191.184-4.85 1.353-4.85 3.384 0 1.948 1.72 3.322 4.415 3.322zm-.808 3.056c-4.373 0-7.274-2.605-7.274-6.378 0-3.671 2.839-5.845 8.103-6.153l5.989-.348v-1.764c0-2.625-1.741-4.06-4.87-4.06-2.466 0-4.31 1.25-4.725 3.24h-3.44c.103-3.63 3.647-6.378 8.227-6.378 5.119 0 8.414 2.686 8.414 6.89V48h-3.42v-3.67h-.083c-1.222 2.358-3.916 3.978-6.921 3.978zm23.169-.103c-5.41 0-9.222-4.348-9.222-10.87 0-6.52 3.792-10.868 9.139-10.868 3.088 0 5.554 1.333 6.86 3.67h.082v-11.73h3.606V48h-3.44v-3.61h-.062c-1.389 2.462-3.855 3.815-6.963 3.815zm.684-18.58c-3.73 0-6.217 3.056-6.217 7.71 0 4.677 2.486 7.712 6.217 7.712 3.71 0 6.196-3.097 6.196-7.711 0-4.594-2.487-7.711-6.196-7.711zm23.293-.062c-3.336 0-5.74 2.4-5.968 5.948h11.709c-.083-3.569-2.384-5.948-5.74-5.948zm5.658 12.326h3.543c-.6 3.691-4.352 6.316-8.973 6.316-6.093 0-9.927-4.163-9.927-10.787 0-6.624 3.855-10.951 9.761-10.951 5.782 0 9.409 4.02 9.409 10.48V38.3h-15.46v.205c0 3.999 2.508 6.603 6.3 6.603 2.653 0 4.746-1.25 5.347-3.22zm26.858 6.316c-3.15 0-5.617-1.353-7.005-3.814h-.083V48h-3.44V18.407h3.606v11.73h.083c1.347-2.337 3.854-3.67 6.9-3.67 5.43 0 9.098 4.347 9.098 10.869 0 6.542-3.668 10.87-9.16 10.87zm-.705-18.58c-3.71 0-6.238 3.138-6.238 7.71 0 4.595 2.528 7.712 6.238 7.712 3.73 0 6.176-3.015 6.176-7.711 0-4.676-2.446-7.711-6.176-7.711zm14.672 26.353c3.896 0 5.679-1.498 7.523-6.48l8.476-22.826h-3.792l-5.969 17.76h-.062l-5.968-17.76h-3.855l7.958 21.349-.497 1.497c-.83 2.481-1.949 3.445-3.959 3.445-.456 0-1.015-.02-1.409-.103v2.994c.394.083 1.12.124 1.554.124z"/>
    </g>
</svg>
